{
	"asset":{
		"generator":"Khronos glTF Blender I/O v4.1.63",
		"version":"2.0"
	},
	"scene":0,
	"scenes":[
		{
			"name":"Scene",
			"nodes":[
				0
			]
		}
	],
	"nodes":[
		{
			"mesh":0,
			"name":"Gantry"
		}
	],
	"materials":[
		{
			"doubleSided":true,
			"name":"green",
			"pbrMetallicRoughness":{
				"baseColorFactor":[
					0.12661366164684296,
					0.8002041578292847,
					0.09205125272274017,
					1
				],
				"metallicFactor":0,
				"roughnessFactor":0.5
			}
		},
		{
			"doubleSided":true,
			"name":"Chrome",
			"pbrMetallicRoughness":{
				"baseColorFactor":[
					0.41828691959381104,
					0.41828691959381104,
					0.41828691959381104,
					1
				],
				"metallicFactor":0.38532111048698425,
				"roughnessFactor":0.14220184087753296
			}
		},
		{
			"doubleSided":true,
			"name":"dark ",
			"pbrMetallicRoughness":{
				"baseColorFactor":[
					0.10223737359046936,
					0.10223737359046936,
					0.10223737359046936,
					1
				],
				"metallicFactor":0,
				"roughnessFactor":0.5
			}
		},
		{
			"doubleSided":true,
			"name":"Plastic",
			"pbrMetallicRoughness":{
				"baseColorFactor":[
					0.8002825975418091,
					0.2046281099319458,
					0.15547335147857666,
					1
				],
				"metallicFactor":0,
				"roughnessFactor":0.5
			}
		},
		{
			"doubleSided":true,
			"name":"red",
			"pbrMetallicRoughness":{
				"baseColorFactor":[
					0.8001892566680908,
					0.1446145921945572,
					0.10498648881912231,
					1
				],
				"metallicFactor":0,
				"roughnessFactor":0.5
			}
		},
		{
			"doubleSided":true,
			"name":"tap",
			"pbrMetallicRoughness":{
				"baseColorFactor":[
					0.14457134902477264,
					0.14457134902477264,
					0.14457134902477264,
					1
				],
				"metallicFactor":0,
				"roughnessFactor":0.5
			}
		},
		{
			"doubleSided":true,
			"name":"tap_Face",
			"pbrMetallicRoughness":{
				"baseColorFactor":[
					0.800000011920929,
					0.800000011920929,
					0.800000011920929,
					1
				],
				"metallicFactor":0,
				"roughnessFactor":0.5
			}
		}
	],
	"meshes":[
		{
			"name":"Circle.004",
			"primitives":[
				{
					"attributes":{
						"POSITION":0,
						"NORMAL":1,
						"TEXCOORD_0":2
					},
					"indices":3,
					"material":0
				},
				{
					"attributes":{
						"POSITION":4,
						"NORMAL":5,
						"TEXCOORD_0":6
					},
					"indices":7,
					"material":1
				},
				{
					"attributes":{
						"POSITION":8,
						"NORMAL":9,
						"TEXCOORD_0":10
					},
					"indices":11,
					"material":2
				},
				{
					"attributes":{
						"POSITION":12,
						"NORMAL":13,
						"TEXCOORD_0":14
					},
					"indices":15,
					"material":3
				},
				{
					"attributes":{
						"POSITION":16,
						"NORMAL":17,
						"TEXCOORD_0":18
					},
					"indices":3,
					"material":4
				},
				{
					"attributes":{
						"POSITION":19,
						"NORMAL":20,
						"TEXCOORD_0":21
					},
					"indices":22,
					"material":5
				},
				{
					"attributes":{
						"POSITION":23,
						"NORMAL":24,
						"TEXCOORD_0":25
					},
					"indices":26,
					"material":6
				}
			]
		}
	],
	"accessors":[
		{
			"bufferView":0,
			"componentType":5126,
			"count":384,
			"max":[
				0.03803527355194092,
				1.0326097011566162,
				0.12198556959629059
			],
			"min":[
				-1.6044644723933743e-07,
				0.7886384725570679,
				-1.4139775037765503
			],
			"type":"VEC3"
		},
		{
			"bufferView":1,
			"componentType":5126,
			"count":384,
			"type":"VEC3"
		},
		{
			"bufferView":2,
			"componentType":5126,
			"count":384,
			"type":"VEC2"
		},
		{
			"bufferView":3,
			"componentType":5123,
			"count":744,
			"type":"SCALAR"
		},
		{
			"bufferView":4,
			"componentType":5126,
			"count":192,
			"max":[
				-0.00853207241743803,
				1.493226170539856,
				0.15209701657295227
			],
			"min":[
				-1.93119215965271,
				0.009062901139259338,
				-1.4501198530197144
			],
			"type":"VEC3"
		},
		{
			"bufferView":5,
			"componentType":5126,
			"count":192,
			"type":"VEC3"
		},
		{
			"bufferView":6,
			"componentType":5126,
			"count":192,
			"type":"VEC2"
		},
		{
			"bufferView":7,
			"componentType":5123,
			"count":432,
			"type":"SCALAR"
		},
		{
			"bufferView":8,
			"componentType":5126,
			"count":16,
			"max":[
				-0.39943695068359375,
				1.449484944343567,
				0.10135877132415771
			],
			"min":[
				-1.5402871370315552,
				1.3949328660964966,
				-1.3993817567825317
			],
			"type":"VEC3"
		},
		{
			"bufferView":9,
			"componentType":5126,
			"count":16,
			"type":"VEC3"
		},
		{
			"bufferView":10,
			"componentType":5126,
			"count":16,
			"type":"VEC2"
		},
		{
			"bufferView":11,
			"componentType":5123,
			"count":24,
			"type":"SCALAR"
		},
		{
			"bufferView":12,
			"componentType":5126,
			"count":360,
			"max":[
				-0.8123335838317871,
				1.44405996799469,
				-0.14196346700191498
			],
			"min":[
				-1.1327773332595825,
				0.8031732439994812,
				-1.1563807725906372
			],
			"type":"VEC3"
		},
		{
			"bufferView":13,
			"componentType":5126,
			"count":360,
			"type":"VEC3"
		},
		{
			"bufferView":14,
			"componentType":5126,
			"count":360,
			"type":"VEC2"
		},
		{
			"bufferView":15,
			"componentType":5123,
			"count":696,
			"type":"SCALAR"
		},
		{
			"bufferView":16,
			"componentType":5126,
			"count":384,
			"max":[
				-1.9406330585479736,
				1.0326097011566162,
				0.12198562920093536
			],
			"min":[
				-1.9786683320999146,
				0.7886384725570679,
				-1.4139775037765503
			],
			"type":"VEC3"
		},
		{
			"bufferView":17,
			"componentType":5126,
			"count":384,
			"type":"VEC3"
		},
		{
			"bufferView":18,
			"componentType":5126,
			"count":384,
			"type":"VEC2"
		},
		{
			"bufferView":19,
			"componentType":5126,
			"count":1120,
			"max":[
				-0.08010811358690262,
				1.4058891534805298,
				0.1138203889131546
			],
			"min":[
				-1.8764772415161133,
				1.3255250453948975,
				-1.4102970361709595
			],
			"type":"VEC3"
		},
		{
			"bufferView":20,
			"componentType":5126,
			"count":1120,
			"type":"VEC3"
		},
		{
			"bufferView":21,
			"componentType":5126,
			"count":1120,
			"type":"VEC2"
		},
		{
			"bufferView":22,
			"componentType":5123,
			"count":1992,
			"type":"SCALAR"
		},
		{
			"bufferView":23,
			"componentType":5126,
			"count":224,
			"max":[
				-0.08010811358690262,
				1.4058891534805298,
				0.1138203889131546
			],
			"min":[
				-1.8764772415161133,
				1.3456308841705322,
				-1.4102970361709595
			],
			"type":"VEC3"
		},
		{
			"bufferView":24,
			"componentType":5126,
			"count":224,
			"type":"VEC3"
		},
		{
			"bufferView":25,
			"componentType":5126,
			"count":224,
			"type":"VEC2"
		},
		{
			"bufferView":26,
			"componentType":5123,
			"count":648,
			"type":"SCALAR"
		}
	],
	"bufferViews":[
		{
			"buffer":0,
			"byteLength":4608,
			"byteOffset":0,
			"target":34962
		},
		{
			"buffer":0,
			"byteLength":4608,
			"byteOffset":4608,
			"target":34962
		},
		{
			"buffer":0,
			"byteLength":3072,
			"byteOffset":9216,
			"target":34962
		},
		{
			"buffer":0,
			"byteLength":1488,
			"byteOffset":12288,
			"target":34963
		},
		{
			"buffer":0,
			"byteLength":2304,
			"byteOffset":13776,
			"target":34962
		},
		{
			"buffer":0,
			"byteLength":2304,
			"byteOffset":16080,
			"target":34962
		},
		{
			"buffer":0,
			"byteLength":1536,
			"byteOffset":18384,
			"target":34962
		},
		{
			"buffer":0,
			"byteLength":864,
			"byteOffset":19920,
			"target":34963
		},
		{
			"buffer":0,
			"byteLength":192,
			"byteOffset":20784,
			"target":34962
		},
		{
			"buffer":0,
			"byteLength":192,
			"byteOffset":20976,
			"target":34962
		},
		{
			"buffer":0,
			"byteLength":128,
			"byteOffset":21168,
			"target":34962
		},
		{
			"buffer":0,
			"byteLength":48,
			"byteOffset":21296,
			"target":34963
		},
		{
			"buffer":0,
			"byteLength":4320,
			"byteOffset":21344,
			"target":34962
		},
		{
			"buffer":0,
			"byteLength":4320,
			"byteOffset":25664,
			"target":34962
		},
		{
			"buffer":0,
			"byteLength":2880,
			"byteOffset":29984,
			"target":34962
		},
		{
			"buffer":0,
			"byteLength":1392,
			"byteOffset":32864,
			"target":34963
		},
		{
			"buffer":0,
			"byteLength":4608,
			"byteOffset":34256,
			"target":34962
		},
		{
			"buffer":0,
			"byteLength":4608,
			"byteOffset":38864,
			"target":34962
		},
		{
			"buffer":0,
			"byteLength":3072,
			"byteOffset":43472,
			"target":34962
		},
		{
			"buffer":0,
			"byteLength":13440,
			"byteOffset":46544,
			"target":34962
		},
		{
			"buffer":0,
			"byteLength":13440,
			"byteOffset":59984,
			"target":34962
		},
		{
			"buffer":0,
			"byteLength":8960,
			"byteOffset":73424,
			"target":34962
		},
		{
			"buffer":0,
			"byteLength":3984,
			"byteOffset":82384,
			"target":34963
		},
		{
			"buffer":0,
			"byteLength":2688,
			"byteOffset":86368,
			"target":34962
		},
		{
			"buffer":0,
			"byteLength":2688,
			"byteOffset":89056,
			"target":34962
		},
		{
			"buffer":0,
			"byteLength":1792,
			"byteOffset":91744,
			"target":34962
		},
		{
			"buffer":0,
			"byteLength":1296,
			"byteOffset":93536,
			"target":34963
		}
	],
	"buffers":[
		{
			"byteLength":94832,
			"uri":"Gantry.bin"
		}
	]
}
